<svg id="Layer_1" data-name="Layer 1" xmlns="http://www.w3.org/2000/svg" viewBox="0 0 512 512"><title>custom-officer-flat</title><rect y="9.13" width="512.01" height="493.73" rx="54.99" ry="54.99" transform="translate(512) rotate(90)" fill="#e6d6a6"/><rect x="20.23" y="11.09" width="471.54" height="489.81" rx="43.89" ry="43.89" fill="#b79148"/><path d="M114.68,200.94V118.45h61.49c1.67,0,3.61,1,5.8,3s3.3,3.92,3.3,5.81v65.25a8.24,8.24,0,0,1-1.88,5.8,12.63,12.63,0,0,1-4.54,3.13A24,24,0,0,1,173,203a36.58,36.58,0,0,1-5.65.47v25.73a4,4,0,0,1-2.67,3.76,10.57,10.57,0,0,1-4.23,1.26h-2.19a3.9,3.9,0,0,1-2.2-.93Zm136.46,54.9-2.82,2.51L208.49,311a19.07,19.07,0,0,1-4.09,3,35.47,35.47,0,0,1-4.07,2H195a29.25,29.25,0,0,1-7.38-.79,19.77,19.77,0,0,1-6.43-3.29l-58-45.49a20.46,20.46,0,0,1-6.12-7,19.84,19.84,0,0,1-1.73-8.63,17.07,17.07,0,0,1,5.8-13.33,19.45,19.45,0,0,1,13.34-5.17,18.09,18.09,0,0,1,11,3.44L187.78,269a16.82,16.82,0,0,1,2.2,1.57c.21,0,.51-.2.94-.63l.94-.94,30.74-40.47a32.83,32.83,0,0,1,8.31-8.47c3.87-2.93,7.47-4.4,10.83-4.4H345.56L254,337.71l-2.82,2.51ZM130.36,126.28l30.75,22.59,2,2,2,2a10.86,10.86,0,0,1,1.42,1.89,5,5,0,0,1,.77,1.55V195c.43,0,1.47-.06,3.14-.15s2.72-.15,3.14-.15a3.67,3.67,0,0,0,1.88-1.09c.83-.75,1.25-1.31,1.25-1.73V129.72a3.56,3.56,0,0,0-1.09-2.18,2.93,2.93,0,0,0-2-1.26Zm135.2,3.44-19.76-28.21H350.27v28.21ZM270,162.05,269,160.8h-18.2l.95-2.2q2.81-3.76,4.71-6.27t3.92-5c1.36-1.67,2.45-3.13,3.3-4.39a23.55,23.55,0,0,0,2.19-1.72c.83-.74,1.35-1.11,1.57-1.11h82.81v26.36a18.44,18.44,0,0,1-2,8q-2,4.23-3.92,7.69a35.39,35.39,0,0,1-15.06,14,43.54,43.54,0,0,1-19.76,4.86A37.66,37.66,0,0,1,294,197.8a39.39,39.39,0,0,1-20.55-20.54A41.15,41.15,0,0,1,270,162.05ZM251.77,366.89H357.48V345.56H274l95-128.61.95-1.27h2.19a22.54,22.54,0,0,1,18.2,8.32,29.32,29.32,0,0,1,6.89,19.29v167.2H251.77Z" fill="#e6d6a6"/></svg>