<svg id="Layer_1" data-name="Layer 1" xmlns="http://www.w3.org/2000/svg" viewBox="0 0 512 512"><title>passport-flat</title><rect y="9.13" width="512.01" height="493.73" rx="54.99" ry="54.99" transform="translate(512) rotate(90)" fill="#e6d6a6"/><rect x="20.23" y="11.09" width="471.54" height="489.81" rx="43.89" ry="43.89" fill="#008982"/><path d="M340.21,424.42H141.72V87.58H340.21a30.11,30.11,0,0,1,30.07,30.08V394.35a30.11,30.11,0,0,1-30.07,30.07Zm0,0" fill="#e6d6a6"/><path d="M256,117.66a84.21,84.21,0,1,0,84.21,84.21A84.3,84.3,0,0,0,256,117.66Zm47.84,78.19a101.48,101.48,0,0,0-6.57-31.67,52.41,52.41,0,0,0,13.88-8.78,71.77,71.77,0,0,1,16.72,40.45ZM262,135.26a82.71,82.71,0,0,1,18.48,21.9A100.28,100.28,0,0,1,262,159.61Zm15-2.43a72.13,72.13,0,0,1,25.66,14.07,41.91,41.91,0,0,1-10.56,6.45A95.13,95.13,0,0,0,277,132.83Zm-27,2.43v24.36a100.32,100.32,0,0,1-18.48-2.46A82.77,82.77,0,0,1,250,135.26Zm-30.09,18.08a41.69,41.69,0,0,1-10.55-6.45A72.06,72.06,0,0,1,235,132.82a95.4,95.4,0,0,0-15.1,20.51ZM250,171.63v24.23h-29.8a89.08,89.08,0,0,1,6-27.67A109.64,109.64,0,0,0,250,171.63Zm0,36.25v24.23a109.55,109.55,0,0,0-23.84,3.44,88.69,88.69,0,0,1-6-27.67Zm0,36.24v24.35a82.84,82.84,0,0,1-18.48-21.89A100.3,100.3,0,0,1,250,244.12Zm-15,26.78a72,72,0,0,1-25.65-14.07,41.75,41.75,0,0,1,10.55-6.45A95.23,95.23,0,0,0,235,270.91Zm27-2.42V244.13a100.21,100.21,0,0,1,18.49,2.46A83,83,0,0,1,262,268.48Zm30.1-18.09a41.9,41.9,0,0,1,10.56,6.44A72,72,0,0,1,277,270.91a95.66,95.66,0,0,0,15.1-20.51ZM262,232.11V207.88h29.8a89.09,89.09,0,0,1-6,27.67A109.64,109.64,0,0,0,262,232.11Zm0-36.25V171.63a109.9,109.9,0,0,0,23.84-3.44,88.68,88.68,0,0,1,6,27.67Zm-61.17-40.45a52.45,52.45,0,0,0,13.88,8.78,101.42,101.42,0,0,0-6.57,31.67h-24a71.81,71.81,0,0,1,16.72-40.45Zm-16.72,52.47h24a101.39,101.39,0,0,0,6.57,31.67,52.38,52.38,0,0,0-13.88,8.78,71.78,71.78,0,0,1-16.73-40.45Zm127,40.45a52.37,52.37,0,0,0-13.88-8.78,101.43,101.43,0,0,0,6.57-31.67h24a71.85,71.85,0,0,1-16.73,40.45Zm0,0" fill="#008982"/><rect x="171.79" y="316.15" width="168.42" height="12.03" fill="#008982"/><rect x="249.98" y="346.23" width="12.03" height="12.03" fill="#333"/><rect x="183.82" y="346.23" width="144.36" height="12.03" fill="#008982"/></svg>